 <svg  version="1.0" xmlns="http://www.w3.org/2000/svg"  width="300.000000pt" height="300.000000pt" viewBox="0 0 300.000000 300.000000"  preserveAspectRatio="xMidYMid meet">  <g transform="translate(0.000000,300.000000) scale(0.100000,-0.100000)" fill="#0f5da2" stroke="none"> <path d="M505 2114 c-16 -2 -84 -9 -150 -15 -66 -6 -125 -14 -132 -18 -18 -10 127 -113 247 -175 156 -81 257 -108 405 -109 146 0 223 17 353 79 70 34 111 62 168 116 89 85 95 79 -98 104 -125 15 -710 29 -793 18z"/> <path d="M1543 1991 c-98 -113 -281 -225 -448 -273 -113 -32 -314 -32 -432 0 -95 26 -247 89 -304 126 -21 15 -39 22 -39 18 0 -5 42 -50 94 -100 195 -189 477 -337 758 -399 128 -28 475 -25 615 5 217 47 398 123 575 242 57 38 114 77 127 88 l25 20 -82 41 c-198 100 -497 207 -714 255 -63 14 -119 26 -124 26 -5 0 -28 -22 -51 -49z"/> <path d="M2549 1617 c-283 -219 -596 -344 -947 -378 -325 -31 -713 65 -996 248 -37 24 -70 43 -71 41 -8 -8 152 -195 255 -298 97 -97 363 -328 404 -352 28 -16 458 89 696 169 202 68 361 135 546 229 149 76 365 200 401 231 l22 18 -123 71 -124 71 -63 -50z"/> </g> </svg> 